<mxfile host="65bd71144e">
    <diagram id="6EGsq8LDl93N3KaSGGD2" name="Page-1">
        <mxGraphModel dx="1088" dy="538" grid="1" gridSize="10" guides="1" tooltips="1" connect="1" arrows="1" fold="1" page="1" pageScale="1" pageWidth="850" pageHeight="1100" math="0" shadow="0">
            <root>
                <mxCell id="0"/>
                <mxCell id="1" parent="0"/>
                <mxCell id="10" value="Manage profile" style="shape=umlFrame;whiteSpace=wrap;html=1;fontSize=14;width=140;height=30;" parent="1" vertex="1">
                    <mxGeometry x="250" y="120" width="500" height="310" as="geometry"/>
                </mxCell>
                <mxCell id="4" style="edgeStyle=orthogonalEdgeStyle;rounded=0;orthogonalLoop=1;jettySize=auto;html=1;endArrow=classic;endFill=1;fontSize=14;endSize=10;startSize=10;" parent="1" source="2" target="3" edge="1">
                    <mxGeometry relative="1" as="geometry"/>
                </mxCell>
                <mxCell id="2" value="User" style="shape=umlActor;verticalLabelPosition=bottom;verticalAlign=top;html=1;outlineConnect=0;fontSize=14;" parent="1" vertex="1">
                    <mxGeometry x="160" y="245" width="30" height="60" as="geometry"/>
                </mxCell>
                <mxCell id="3" value="Manage profle" style="ellipse;whiteSpace=wrap;html=1;fontSize=14;" parent="1" vertex="1">
                    <mxGeometry x="305" y="235" width="120" height="80" as="geometry"/>
                </mxCell>
                <mxCell id="6" value="&amp;lt;&amp;lt;extend&amp;gt;&amp;gt;" style="rounded=0;orthogonalLoop=1;jettySize=auto;html=1;endArrow=open;endFill=0;fontSize=14;endSize=10;startSize=10;dashed=1;" parent="1" source="5" target="3" edge="1">
                    <mxGeometry x="-0.0215" y="3" relative="1" as="geometry">
                        <mxPoint as="offset"/>
                    </mxGeometry>
                </mxCell>
                <mxCell id="5" value="Update information" style="ellipse;whiteSpace=wrap;html=1;fontSize=14;" parent="1" vertex="1">
                    <mxGeometry x="570" y="160" width="120" height="80" as="geometry"/>
                </mxCell>
                <mxCell id="8" value="&amp;lt;&amp;lt;include&amp;gt;&amp;gt;" style="edgeStyle=none;rounded=0;orthogonalLoop=1;jettySize=auto;html=1;fontSize=14;endArrow=none;endFill=0;dashed=1;startArrow=open;startFill=0;endSize=10;startSize=10;" parent="1" source="7" target="3" edge="1">
                    <mxGeometry x="-0.0384" y="2" relative="1" as="geometry">
                        <mxPoint as="offset"/>
                    </mxGeometry>
                </mxCell>
                <mxCell id="7" value="Authenticate" style="ellipse;whiteSpace=wrap;html=1;fontSize=14;" parent="1" vertex="1">
                    <mxGeometry x="570" y="320" width="120" height="80" as="geometry"/>
                </mxCell>
            </root>
        </mxGraphModel>
    </diagram>
</mxfile>